<svg width="1363" height="240" viewBox="0 0 1363 240" fill="none" xmlns="http://www.w3.org/2000/svg">
<path fill-rule="evenodd" clip-rule="evenodd" d="M43.8455 87.6909C68.0606 87.6909 87.6909 68.0606 87.6909 43.8455C87.6909 19.6303 68.0606 0 43.8455 0C19.6303 0 0 19.6303 0 43.8455C0 68.0606 19.6303 87.6909 43.8455 87.6909ZM327.155 239.464C351.37 239.464 371 219.833 371 195.618C371 171.403 351.37 151.773 327.155 151.773C302.94 151.773 283.309 171.403 283.309 195.618C283.309 219.833 302.94 239.464 327.155 239.464ZM87.6909 195.618C87.6909 219.833 68.0606 239.464 43.8455 239.464C19.6303 239.464 0 219.833 0 195.618C0 171.403 19.6303 151.773 43.8455 151.773C68.0606 151.773 87.6909 171.403 87.6909 195.618ZM327.155 87.6909C351.37 87.6909 371 68.0606 371 43.8455C371 19.6303 351.37 0 327.155 0C302.94 0 283.309 19.6303 283.309 43.8455C283.309 68.0606 302.94 87.6909 327.155 87.6909ZM229.346 43.8455C229.346 68.0606 209.715 87.6909 185.5 87.6909C161.285 87.6909 141.655 68.0606 141.655 43.8455C141.655 19.6303 161.285 0 185.5 0C209.715 0 229.346 19.6303 229.346 43.8455ZM185.5 239.464C209.715 239.464 229.346 219.833 229.346 195.618C229.346 171.403 209.715 151.773 185.5 151.773C161.285 151.773 141.655 171.403 141.655 195.618C141.655 219.833 161.285 239.464 185.5 239.464Z" fill="#9A1895"/>
<path d="M510.76 98C518.227 98 524.173 99.8133 528.6 103.44C533.08 107.067 536.307 112.187 538.28 118.8C540.253 125.36 541.24 133.04 541.24 141.84C541.24 150.32 540.04 157.893 537.64 164.56C535.293 171.173 531.72 176.373 526.92 180.16C522.12 183.947 516.067 185.84 508.76 185.84C499.533 185.84 492.12 182.587 486.52 176.08V216.24L473.08 217.92V99.76H484.52L485.64 111.52C488.733 107.2 492.413 103.867 496.68 101.52C501 99.1733 505.693 98 510.76 98ZM507.56 108.8C502.92 108.8 498.813 110.213 495.24 113.04C491.72 115.813 488.813 118.907 486.52 122.32V164.08C488.707 167.333 491.453 169.92 494.76 171.84C498.12 173.707 501.8 174.64 505.8 174.64C512.787 174.64 518.04 171.973 521.56 166.64C525.08 161.307 526.84 153.013 526.84 141.76C526.84 134.4 526.147 128.293 524.76 123.44C523.373 118.533 521.267 114.88 518.44 112.48C515.613 110.027 511.987 108.8 507.56 108.8ZM569.818 184V173.68H582.938V110.08H569.818V99.76H593.178L595.658 119.68C598.911 112.747 602.858 107.387 607.498 103.6C612.138 99.8133 618.271 97.92 625.898 97.92C628.244 97.92 630.324 98.1067 632.138 98.48C634.004 98.8 635.898 99.2267 637.818 99.76L633.898 111.76C632.138 111.28 630.538 110.933 629.098 110.72C627.658 110.453 626.004 110.32 624.138 110.32C617.684 110.32 612.138 112.613 607.498 117.2C602.858 121.787 599.151 128.72 596.378 138V173.68H613.498V184H569.818ZM624.858 128.24V109.92L626.218 99.76H637.818L635.898 128.24H624.858ZM697.035 98C704.982 98 711.622 99.8133 716.955 103.44C722.342 107.013 726.368 112.08 729.035 118.64C731.755 125.2 733.115 132.933 733.115 141.84C733.115 150.427 731.728 158.027 728.955 164.64C726.182 171.253 722.102 176.453 716.715 180.24C711.382 183.973 704.768 185.84 696.875 185.84C688.982 185.84 682.342 184.027 676.955 180.4C671.568 176.773 667.488 171.68 664.715 165.12C661.995 158.507 660.635 150.8 660.635 142C660.635 133.307 662.022 125.653 664.795 119.04C667.568 112.427 671.648 107.28 677.035 103.6C682.475 99.8667 689.142 98 697.035 98ZM697.035 108.96C689.782 108.96 684.288 111.653 680.555 117.04C676.875 122.373 675.035 130.693 675.035 142C675.035 153.093 676.848 161.333 680.475 166.72C684.155 172.107 689.622 174.8 696.875 174.8C704.128 174.8 709.568 172.107 713.195 166.72C716.875 161.333 718.715 153.04 718.715 141.84C718.715 130.64 716.902 122.373 713.275 117.04C709.648 111.653 704.235 108.96 697.035 108.96ZM769.053 184H753.693L784.812 139.52L757.533 99.76H773.453L792.973 131.12L812.733 99.76H828.093L800.893 138.96L831.933 184H815.453L792.413 147.84L769.053 184ZM899.47 99.76V173.36H923.23V184H860.03V173.36H886.03V110.4H860.83V99.76H899.47ZM888.75 60.32C891.737 60.32 894.11 61.2267 895.87 63.04C897.683 64.8533 898.59 67.0667 898.59 69.68C898.59 72.4 897.683 74.6933 895.87 76.56C894.11 78.3733 891.737 79.28 888.75 79.28C885.923 79.28 883.603 78.3733 881.79 76.56C879.977 74.6933 879.07 72.4 879.07 69.68C879.07 67.0667 879.977 64.8533 881.79 63.04C883.603 61.2267 885.923 60.32 888.75 60.32Z" fill="white"/>
<path d="M990.848 174.24C995.061 174.24 998.981 173.547 1002.61 172.16C1006.29 170.773 1009.67 169.013 1012.77 166.88L1019.33 175.68C1015.65 178.827 1011.22 181.307 1006.05 183.12C1000.87 184.933 995.808 185.84 990.848 185.84C982.474 185.84 975.328 184.053 969.408 180.48C963.541 176.853 959.061 171.787 955.968 165.28C952.874 158.72 951.328 151.04 951.328 142.24C951.328 133.813 952.874 126.267 955.968 119.6C959.114 112.88 963.621 107.6 969.488 103.76C975.408 99.92 982.581 98 991.008 98C996.394 98 1001.43 98.8267 1006.13 100.48C1010.87 102.08 1015.22 104.507 1019.17 107.76L1012.61 116.72C1009.03 114.213 1005.43 112.347 1001.81 111.12C998.234 109.84 994.581 109.2 990.848 109.2C983.594 109.2 977.621 111.92 972.928 117.36C968.234 122.8 965.888 131.093 965.888 142.24C965.888 149.707 966.954 155.813 969.088 160.56C971.274 165.253 974.234 168.72 977.968 170.96C981.754 173.147 986.048 174.24 990.848 174.24ZM1080.79 98C1088.73 98 1095.37 99.8133 1100.71 103.44C1106.09 107.013 1110.12 112.08 1112.79 118.64C1115.51 125.2 1116.87 132.933 1116.87 141.84C1116.87 150.427 1115.48 158.027 1112.71 164.64C1109.93 171.253 1105.85 176.453 1100.47 180.24C1095.13 183.973 1088.52 185.84 1080.63 185.84C1072.73 185.84 1066.09 184.027 1060.71 180.4C1055.32 176.773 1051.24 171.68 1048.47 165.12C1045.75 158.507 1044.38 150.8 1044.38 142C1044.38 133.307 1045.77 125.653 1048.55 119.04C1051.32 112.427 1055.4 107.28 1060.79 103.6C1066.23 99.8667 1072.89 98 1080.79 98ZM1080.79 108.96C1073.53 108.96 1068.04 111.653 1064.31 117.04C1060.63 122.373 1058.79 130.693 1058.79 142C1058.79 153.093 1060.6 161.333 1064.23 166.72C1067.91 172.107 1073.37 174.8 1080.63 174.8C1087.88 174.8 1093.32 172.107 1096.95 166.72C1100.63 161.333 1102.47 153.04 1102.47 141.84C1102.47 130.64 1100.65 122.373 1097.03 117.04C1093.4 111.653 1087.99 108.96 1080.79 108.96ZM1195.04 64.16L1208.48 65.84V184H1196.72L1195.44 172.88C1192.3 177.36 1188.67 180.64 1184.56 182.72C1180.51 184.8 1176.16 185.84 1171.52 185.84C1164.22 185.84 1158.19 184 1153.44 180.32C1148.7 176.64 1145.18 171.52 1142.88 164.96C1140.59 158.347 1139.44 150.693 1139.44 142C1139.44 133.573 1140.75 126.053 1143.36 119.44C1145.98 112.773 1149.74 107.547 1154.64 103.76C1159.6 99.92 1165.55 98 1172.48 98C1177.34 98 1181.6 98.8533 1185.28 100.56C1188.96 102.213 1192.22 104.667 1195.04 107.92V64.16ZM1176 108.8C1168.96 108.8 1163.55 111.547 1159.76 117.04C1155.98 122.533 1154.08 130.853 1154.08 142C1154.08 149.253 1154.86 155.333 1156.4 160.24C1157.95 165.147 1160.22 168.827 1163.2 171.28C1166.24 173.733 1169.95 174.96 1174.32 174.96C1179.12 174.96 1183.2 173.6 1186.56 170.88C1189.98 168.16 1192.8 165.093 1195.04 161.68V119.6C1192.75 116.187 1189.98 113.547 1186.72 111.68C1183.47 109.76 1179.9 108.8 1176 108.8ZM1251.14 146.64C1251.41 153.147 1252.66 158.48 1254.9 162.64C1257.14 166.747 1260.1 169.787 1263.78 171.76C1267.46 173.68 1271.46 174.64 1275.78 174.64C1280.1 174.64 1283.99 174 1287.46 172.72C1290.98 171.44 1294.58 169.547 1298.26 167.04L1304.58 175.92C1300.63 179.013 1296.13 181.44 1291.06 183.2C1286.05 184.96 1280.9 185.84 1275.62 185.84C1267.46 185.84 1260.5 184 1254.74 180.32C1248.98 176.64 1244.58 171.52 1241.54 164.96C1238.55 158.347 1237.06 150.693 1237.06 142C1237.06 133.467 1238.58 125.893 1241.62 119.28C1244.66 112.667 1248.93 107.467 1254.42 103.68C1259.91 99.8933 1266.39 98 1273.86 98C1280.95 98 1287.06 99.68 1292.18 103.04C1297.3 106.347 1301.22 111.093 1303.94 117.28C1306.71 123.413 1308.1 130.747 1308.1 139.28C1308.1 140.72 1308.07 142.08 1308.02 143.36C1307.97 144.587 1307.89 145.68 1307.78 146.64H1251.14ZM1274.02 109.04C1267.78 109.04 1262.55 111.253 1258.34 115.68C1254.18 120.107 1251.81 126.96 1251.22 136.24H1295.14C1294.98 127.227 1293.01 120.453 1289.22 115.92C1285.43 111.333 1280.37 109.04 1274.02 109.04Z" fill="#9A1895"/>
</svg>
